<?xml version="1.0" encoding="utf-8"?>
<!-- Generator: Adobe Illustrator 24.2.0, SVG Export Plug-In . SVG Version: 6.00 Build 0)  -->
<svg version="1.1" id="Layer_1" xmlns="http://www.w3.org/2000/svg" xmlns:xlink="http://www.w3.org/1999/xlink" x="0px" y="0px"
	 viewBox="0 0 512 512" style="enable-background:new 0 0 512 512;" xml:space="preserve">
<style type="text/css">
	.st0{fill:#24292E;}
	.st1{fill:#FFFFFF;}
</style>
<g id="_x3F__x3F__x3F__x3F__x5F_x0020_x5F_1">
	<path class="st1" d="M149.37,188.17c22.68-36.19,64.48-58.71,107.09-58.82c0,84.43,0,168.87,0,253.3
		c-27-0.44-53.96-8.86-75.62-25.14c-27.35-20.09-46.13-51.59-50.22-85.34C126.66,243.13,133.53,212.79,149.37,188.17z
		 M272.58,145.28c4.13-0.02,8.28-0.02,12.41-0.02c0.02,73.83,0,147.66,0,221.48c-4.13,0-8.28,0-12.41-0.02
		C272.59,292.9,272.59,219.09,272.58,145.28z M323.43,176.92c4.15-0.02,8.28-0.02,12.43-0.02c0,52.73,0,105.47,0,158.2
		c-4.15,0-8.28,0-12.43-0.02C323.45,282.37,323.45,229.63,323.43,176.92z M297.98,208.54c4.22,0,8.44,0,12.66,0
		c0,31.64,0,63.28,0,94.92c-4.22,0-8.44,0-12.66,0C297.98,271.82,297.98,240.18,297.98,208.54z M348.88,240.18
		c4.18,0,8.38,0,12.59,0c0,10.56,0,21.13,0,31.71c-4.2,0-8.4,0-12.59,0C348.87,261.33,348.87,250.74,348.88,240.18z"/>
</g>
</svg>
